<?xml version="1.0" encoding="UTF-8"?>
<!DOCTYPE svg PUBLIC "-//W3C//DTD SVG 1.1//EN" "http://www.w3.org/Graphics/SVG/1.1/DTD/svg11.dtd">
<svg version="1.1" xmlns="http://www.w3.org/2000/svg" xmlns:xlink="http://www.w3.org/1999/xlink" x="0" y="0" width="220" height="190.873" viewBox="0, 0, 220, 190.873">
  <defs>
    <clipPath id="Clip_1">
      <path d="M207.799,13.648 L207.799,175.044 L13.527,175.044 L13.527,13.648 L207.799,13.648 z"/>
    </clipPath>
  </defs>
  <g id="Layer_1">
    <g>
      <g>
        <path d="M110.663,177.17 L110.663,172.918" fill-opacity="0" stroke="#929292" stroke-width="0.199"/>
        <path d="M11.401,134.695 L15.653,134.695 M11.401,94.346 L15.653,94.346" fill-opacity="0" stroke="#929292" stroke-width="0.199"/>
        <path d="M13.527,175.044 L205.806,175.044" fill-opacity="0" stroke="#000000" stroke-width="0.398"/>
        <path d="M207.799,175.044 L204.611,173.45 L205.806,175.044 L204.611,176.638" fill="#000000"/>
        <path d="M13.527,175.044 L13.527,15.64" fill-opacity="0" stroke="#000000" stroke-width="0.398"/>
        <path d="M13.527,13.648 L11.933,16.836 L13.527,15.64 L15.121,16.836" fill="#000000"/>
        <path d="M111.101,180.733 C111.101,180.494 111.101,180.474 110.872,180.474 C110.254,181.112 109.377,181.112 109.058,181.112 L109.058,181.421 C109.258,181.421 109.846,181.421 110.364,181.162 L110.364,186.322 C110.364,186.681 110.334,186.8 109.437,186.8 L109.118,186.8 L109.118,187.109 C109.467,187.079 110.334,187.079 110.732,187.079 C111.131,187.079 111.997,187.079 112.346,187.109 L112.346,186.8 L112.027,186.8 C111.131,186.8 111.101,186.691 111.101,186.322 z" fill="#000000"/>
        <path d="M5.83,131.529 C5.83,131.29 5.83,131.27 5.601,131.27 C4.983,131.908 4.106,131.908 3.787,131.908 L3.787,132.217 C3.987,132.217 4.575,132.217 5.093,131.958 L5.093,137.118 C5.093,137.477 5.063,137.596 4.166,137.596 L3.847,137.596 L3.847,137.905 C4.196,137.875 5.063,137.875 5.461,137.875 C5.86,137.875 6.726,137.875 7.075,137.905 L7.075,137.596 L6.756,137.596 C5.86,137.596 5.83,137.487 5.83,137.118 z" fill="#000000"/>
        <path d="M4.166,96.79 L5.222,95.764 C6.776,94.389 7.374,93.851 7.374,92.855 C7.374,91.719 6.477,90.922 5.262,90.922 C4.136,90.922 3.399,91.839 3.399,92.725 C3.399,93.283 3.897,93.283 3.927,93.283 C4.096,93.283 4.445,93.164 4.445,92.755 C4.445,92.496 4.266,92.237 3.917,92.237 C3.837,92.237 3.817,92.237 3.787,92.247 C4.017,91.6 4.555,91.231 5.132,91.231 C6.039,91.231 6.467,92.038 6.467,92.855 C6.467,93.652 5.969,94.439 5.421,95.057 L3.509,97.189 C3.399,97.298 3.399,97.318 3.399,97.557 L7.095,97.557 L7.374,95.824 L7.125,95.824 C7.075,96.123 7.005,96.561 6.906,96.71 C6.836,96.79 6.178,96.79 5.959,96.79 z" fill="#000000"/>
      </g>
      <g clip-path="url(#Clip_1)">
        <path d="M13.527,94.346 C13.527,94.346 16.451,89.675 17.574,88.036 C18.697,86.396 20.498,83.952 21.621,82.531 C22.744,81.11 24.545,79.009 25.669,77.797 C26.792,76.585 28.593,74.811 29.716,73.798 C30.839,72.786 32.64,71.323 33.763,70.5 C34.886,69.677 36.687,68.51 37.81,67.867 C38.934,67.224 40.735,66.338 41.858,65.865 C42.981,65.392 44.782,64.771 45.905,64.458 C47.028,64.145 48.829,63.773 49.952,63.611 C51.075,63.449 52.876,63.311 53.999,63.29 C55.123,63.269 56.924,63.349 58.047,63.46 C59.17,63.57 60.971,63.853 62.094,64.084 C63.217,64.316 65.018,64.786 66.141,65.129 C67.264,65.472 69.065,66.114 70.189,66.559 C71.312,67.004 73.113,67.802 74.236,68.339 C75.359,68.877 77.16,69.815 78.283,70.435 C79.406,71.055 81.207,72.117 82.33,72.811 C83.454,73.504 85.255,74.675 86.378,75.432 C87.501,76.188 89.302,77.453 90.425,78.263 C91.548,79.073 93.349,80.415 94.472,81.269 C95.595,82.123 97.396,83.528 98.519,84.415 C99.643,85.303 101.444,86.755 102.567,87.667 C103.69,88.579 105.491,90.062 106.614,90.988 C107.737,91.915 110.661,94.345 110.661,94.345" fill-opacity="0" stroke="#000000" stroke-width="0.398"/>
        <path d="M112.12,133.485 C112.12,133.485 115,131.096 116.106,130.187 C117.213,129.278 118.987,127.826 120.093,126.935 C121.199,126.043 122.973,124.626 124.08,123.761 C125.186,122.896 126.96,121.53 128.066,120.701 C129.173,119.872 130.947,118.57 132.053,117.787 C133.159,117.003 134.933,115.781 136.04,115.052 C137.146,114.322 138.92,113.196 140.026,112.53 C141.132,111.864 142.907,110.847 144.013,110.255 C145.119,109.662 146.893,108.77 147.999,108.26 C149.106,107.749 150.88,106.996 151.986,106.578 C153.092,106.159 154.866,105.561 155.973,105.243 C157.079,104.926 158.853,104.496 159.959,104.289 C161.066,104.082 162.84,103.836 163.946,103.749 C165.052,103.661 166.826,103.615 167.933,103.655 C169.039,103.696 170.813,103.864 171.919,104.043 C173.025,104.222 174.799,104.619 175.906,104.945 C177.012,105.272 178.786,105.912 179.892,106.395 C180.999,106.878 182.773,107.778 183.879,108.427 C184.985,109.076 186.759,110.248 187.866,111.073 C188.972,111.897 190.746,113.358 191.852,114.367 C192.958,115.375 194.733,117.14 195.839,118.342 C196.945,119.545 198.719,121.628 199.826,123.033 C200.932,124.439 202.706,126.855 203.812,128.473 C204.918,130.091 207.799,134.695 207.799,134.695" fill-opacity="0" stroke="#000000" stroke-width="0.398"/>
        <path d="M112.411,134.695 C112.411,134.695 112.384,134.389 112.352,134.277 C112.319,134.166 112.24,133.989 112.177,133.888 C112.114,133.788 111.988,133.636 111.899,133.554 C111.81,133.472 111.646,133.355 111.537,133.297 C111.428,133.24 111.237,133.166 111.115,133.136 C110.994,133.106 110.788,133.081 110.663,133.081 C110.537,133.081 110.332,133.106 110.21,133.136 C110.089,133.166 109.897,133.239 109.789,133.297 C109.68,133.355 109.515,133.472 109.427,133.554 C109.338,133.636 109.211,133.788 109.149,133.888 C109.086,133.989 109.007,134.165 108.974,134.277 C108.942,134.389 108.914,134.579 108.914,134.695 C108.914,134.811 108.942,135.001 108.974,135.113 C109.007,135.225 109.086,135.402 109.149,135.502 C109.211,135.602 109.338,135.754 109.427,135.836 C109.515,135.918 109.68,136.035 109.789,136.093 C109.897,136.151 110.089,136.224 110.21,136.254 C110.332,136.284 110.537,136.309 110.663,136.309 C110.788,136.309 110.994,136.284 111.115,136.254 C111.237,136.224 111.428,136.151 111.537,136.093 C111.646,136.035 111.81,135.918 111.899,135.836 C111.988,135.754 112.114,135.603 112.177,135.502 C112.24,135.402 112.319,135.225 112.352,135.113 C112.384,135.001 112.411,134.695 112.411,134.695" fill-opacity="0" stroke="#000000" stroke-width="0.398"/>
      </g>
      <g>
        <path d="M214.678,179.845 C214.738,179.586 214.967,178.669 215.665,178.669 C215.714,178.669 215.954,178.669 216.163,178.798 C215.884,178.848 215.685,179.097 215.685,179.336 C215.685,179.496 215.794,179.685 216.063,179.685 C216.282,179.685 216.601,179.506 216.601,179.107 C216.601,178.589 216.013,178.45 215.675,178.45 C215.097,178.45 214.748,178.978 214.628,179.207 C214.379,178.549 213.841,178.45 213.553,178.45 C212.516,178.45 211.949,179.735 211.949,179.984 C211.949,180.084 212.048,180.084 212.068,180.084 C212.148,180.084 212.178,180.064 212.198,179.974 C212.536,178.918 213.194,178.669 213.533,178.669 C213.722,178.669 214.071,178.759 214.071,179.336 C214.071,179.645 213.901,180.313 213.533,181.708 C213.373,182.325 213.025,182.744 212.586,182.744 C212.526,182.744 212.297,182.744 212.088,182.614 C212.337,182.564 212.556,182.355 212.556,182.076 C212.556,181.807 212.337,181.727 212.188,181.727 C211.889,181.727 211.64,181.986 211.64,182.305 C211.64,182.764 212.138,182.963 212.576,182.963 C213.234,182.963 213.592,182.265 213.622,182.206 C213.742,182.574 214.1,182.963 214.698,182.963 C215.724,182.963 216.292,181.678 216.292,181.429 C216.292,181.329 216.203,181.329 216.173,181.329 C216.083,181.329 216.063,181.369 216.043,181.439 C215.714,182.505 215.037,182.744 214.718,182.744 C214.33,182.744 214.17,182.425 214.17,182.086 C214.17,181.867 214.23,181.648 214.34,181.209 z" fill="#000000"/>
        <path d="M21.889,4.371 C21.928,4.232 21.928,4.212 21.928,4.142 C21.928,3.963 21.789,3.873 21.64,3.873 C21.54,3.873 21.381,3.933 21.291,4.083 C21.271,4.132 21.191,4.441 21.151,4.621 C21.082,4.88 21.012,5.149 20.952,5.418 L20.504,7.211 C20.464,7.36 20.036,8.058 19.378,8.058 C18.87,8.058 18.76,7.619 18.76,7.251 C18.76,6.792 18.93,6.175 19.268,5.298 C19.428,4.89 19.468,4.78 19.468,4.581 C19.468,4.132 19.149,3.764 18.651,3.764 C17.704,3.764 17.336,5.208 17.336,5.298 C17.336,5.398 17.435,5.398 17.455,5.398 C17.555,5.398 17.565,5.378 17.615,5.218 C17.884,4.282 18.282,3.983 18.621,3.983 C18.701,3.983 18.87,3.983 18.87,4.302 C18.87,4.551 18.77,4.81 18.701,4.999 C18.302,6.055 18.123,6.623 18.123,7.091 C18.123,7.978 18.75,8.277 19.338,8.277 C19.727,8.277 20.065,8.107 20.344,7.829 C20.215,8.347 20.095,8.835 19.697,9.363 C19.438,9.701 19.059,9.99 18.601,9.99 C18.461,9.99 18.013,9.961 17.844,9.572 C18.003,9.572 18.133,9.572 18.272,9.452 C18.372,9.363 18.471,9.233 18.471,9.044 C18.471,8.735 18.202,8.695 18.103,8.695 C17.874,8.695 17.545,8.855 17.545,9.343 C17.545,9.841 17.983,10.21 18.601,10.21 C19.627,10.21 20.653,9.303 20.932,8.177 z" fill="#000000"/>
        <path d="M126.969,88.699 C127.008,88.56 127.008,88.54 127.008,88.47 C127.008,88.291 126.869,88.201 126.72,88.201 C126.62,88.201 126.461,88.261 126.371,88.411 C126.351,88.46 126.271,88.769 126.231,88.949 C126.162,89.208 126.092,89.477 126.032,89.746 L125.584,91.539 C125.544,91.688 125.116,92.386 124.458,92.386 C123.95,92.386 123.84,91.947 123.84,91.579 C123.84,91.12 124.01,90.503 124.348,89.626 C124.508,89.218 124.548,89.108 124.548,88.909 C124.548,88.46 124.229,88.092 123.731,88.092 C122.784,88.092 122.416,89.536 122.416,89.626 C122.416,89.726 122.515,89.726 122.535,89.726 C122.635,89.726 122.645,89.706 122.695,89.546 C122.964,88.61 123.362,88.311 123.701,88.311 C123.781,88.311 123.95,88.311 123.95,88.63 C123.95,88.879 123.85,89.138 123.781,89.327 C123.382,90.383 123.203,90.951 123.203,91.419 C123.203,92.306 123.83,92.605 124.418,92.605 C124.807,92.605 125.145,92.435 125.424,92.157 C125.295,92.675 125.175,93.163 124.777,93.691 C124.518,94.029 124.139,94.318 123.681,94.318 C123.541,94.318 123.093,94.289 122.924,93.9 C123.083,93.9 123.213,93.9 123.352,93.78 C123.452,93.691 123.551,93.561 123.551,93.372 C123.551,93.063 123.282,93.023 123.183,93.023 C122.954,93.023 122.625,93.183 122.625,93.671 C122.625,94.169 123.063,94.538 123.681,94.538 C124.707,94.538 125.733,93.631 126.012,92.505 z" fill="#000000"/>
        <path d="M136.981,89.237 C137.131,89.237 137.32,89.237 137.32,89.038 C137.32,88.839 137.131,88.839 136.991,88.839 L131.023,88.839 C130.884,88.839 130.695,88.839 130.695,89.038 C130.695,89.237 130.884,89.237 131.033,89.237 z M136.991,91.17 C137.131,91.17 137.32,91.17 137.32,90.971 C137.32,90.772 137.131,90.772 136.981,90.772 L131.033,90.772 C130.884,90.772 130.695,90.772 130.695,90.971 C130.695,91.17 130.884,91.17 131.023,91.17 z" fill="#000000"/>
        <path d="M144.309,88.51 L145.166,88.51 C145.365,88.51 145.465,88.51 145.465,88.311 C145.465,88.201 145.365,88.201 145.196,88.201 L144.369,88.201 L144.578,87.066 C144.618,86.856 144.757,86.149 144.817,86.03 C144.907,85.84 145.076,85.691 145.285,85.691 C145.325,85.691 145.584,85.691 145.774,85.87 C145.335,85.91 145.236,86.259 145.236,86.408 C145.236,86.637 145.415,86.757 145.604,86.757 C145.863,86.757 146.152,86.538 146.152,86.159 C146.152,85.701 145.694,85.472 145.285,85.472 C144.947,85.472 144.319,85.651 144.02,86.637 C143.96,86.846 143.93,86.946 143.691,88.201 L143.004,88.201 C142.815,88.201 142.705,88.201 142.705,88.391 C142.705,88.51 142.795,88.51 142.984,88.51 L143.642,88.51 L142.894,92.445 C142.715,93.412 142.546,94.318 142.028,94.318 C141.988,94.318 141.739,94.318 141.549,94.139 C142.008,94.109 142.097,93.751 142.097,93.601 C142.097,93.372 141.918,93.252 141.729,93.252 C141.47,93.252 141.181,93.472 141.181,93.85 C141.181,94.298 141.619,94.538 142.028,94.538 C142.576,94.538 142.974,93.95 143.153,93.571 C143.472,92.944 143.701,91.738 143.711,91.668 z" fill="#000000"/>
        <path d="M149.9,94.886 C149.9,94.856 149.9,94.836 149.731,94.667 C148.486,93.412 148.167,91.529 148.167,90.005 C148.167,88.271 148.546,86.538 149.771,85.292 C149.9,85.173 149.9,85.153 149.9,85.123 C149.9,85.053 149.861,85.023 149.801,85.023 C149.701,85.023 148.805,85.701 148.217,86.966 C147.709,88.062 147.589,89.168 147.589,90.005 C147.589,90.782 147.699,91.987 148.247,93.113 C148.844,94.338 149.701,94.986 149.801,94.986 C149.861,94.986 149.9,94.956 149.9,94.886 z" fill="#000000"/>
        <path d="M153.804,89.487 C153.864,89.228 154.093,88.311 154.791,88.311 C154.84,88.311 155.08,88.311 155.289,88.44 C155.01,88.49 154.811,88.739 154.811,88.978 C154.811,89.138 154.92,89.327 155.189,89.327 C155.408,89.327 155.727,89.148 155.727,88.749 C155.727,88.231 155.139,88.092 154.801,88.092 C154.223,88.092 153.874,88.62 153.754,88.849 C153.505,88.191 152.967,88.092 152.679,88.092 C151.642,88.092 151.075,89.377 151.075,89.626 C151.075,89.726 151.174,89.726 151.194,89.726 C151.274,89.726 151.304,89.706 151.324,89.616 C151.662,88.56 152.32,88.311 152.659,88.311 C152.848,88.311 153.197,88.401 153.197,88.978 C153.197,89.287 153.027,89.955 152.659,91.35 C152.499,91.967 152.151,92.386 151.712,92.386 C151.652,92.386 151.423,92.386 151.214,92.256 C151.463,92.206 151.682,91.997 151.682,91.718 C151.682,91.449 151.463,91.369 151.314,91.369 C151.015,91.369 150.766,91.628 150.766,91.947 C150.766,92.406 151.264,92.605 151.702,92.605 C152.36,92.605 152.718,91.907 152.748,91.848 C152.868,92.216 153.226,92.605 153.824,92.605 C154.85,92.605 155.418,91.32 155.418,91.071 C155.418,90.971 155.329,90.971 155.299,90.971 C155.209,90.971 155.189,91.011 155.169,91.081 C154.84,92.147 154.163,92.386 153.844,92.386 C153.456,92.386 153.296,92.067 153.296,91.728 C153.296,91.509 153.356,91.29 153.466,90.851 z" fill="#000000"/>
        <path d="M159.05,90.005 C159.05,89.228 158.94,88.022 158.392,86.896 C157.795,85.671 156.938,85.023 156.838,85.023 C156.779,85.023 156.739,85.063 156.739,85.123 C156.739,85.153 156.739,85.173 156.928,85.352 C157.904,86.338 158.472,87.922 158.472,90.005 C158.472,91.708 158.104,93.462 156.868,94.717 C156.739,94.836 156.739,94.856 156.739,94.886 C156.739,94.946 156.779,94.986 156.838,94.986 C156.938,94.986 157.835,94.308 158.422,93.043 C158.93,91.947 159.05,90.841 159.05,90.005 z" fill="#000000"/>
      </g>
    </g>
  </g>
</svg>
