<?xml version="1.0" encoding="UTF-8"?>
<svg xmlns="http://www.w3.org/2000/svg" xmlns:xlink="http://www.w3.org/1999/xlink" width="309pt" height="206.36pt" viewBox="0 0 309 206.36" version="1.1"><!--latexit:AAAJq3jatVZdbFRFFJ6Bcu+yBbot/1BkoK0WWMq2oIAI9I8iP93S7rZdtlvLvXdn
d4e9f9w7C92uKwOJGA0aNEQNKoE2BlCDhPiH6IMkPvGihRgNMcQ3YsQHY+Kbce7u
2nZtG+ODs9l7Z875ztkz3zlzZmVTJTb1+e7CGTNLZgnZ50LVR7FlE0MPVRvyYaxQ
+2C1ZCkJwsXBamqYFQCeuvChZ5XoWrW6qrrm0cdq16xdV79l6/bmp/d0HAgdfEaO
J9QjdDDdXa2nVPXObHfpnEWo1x+oS+K0Hebvgt+eakWVbPvK3HllnvKK+QsWshls
Jiths5jAROZis5n7yuIlS5ctr1zxyEpWyuaweayMlbNlbDlbwR5hKCRLNlaJjrsV
QzWsoGZEcTclVMUh08KSJqu4X5PiOokRRaJ8S8GoRPGAp0yWlGTcMlJ6tMUxDNtG
ylJwEA/SqsbVkXVnf2hM3/GuL63b4Ov2B7p2N0f8gRwwYEoK7vBU1iNf3VY+Nm/y
1TdsKiy2+hwJ8EA2d7Rh46bHw/nt6ZKGQ/kptnsLjoaf2Pz3NOQPdOT48IDR0ie3
PXWQE2RTi+hx5jnAHe3YyQP2B9pTVOL7CeQ0Izsam7hdfjHm4E5Laeuutt1jCh51
E+UzOUWxzSrYUjZ/oLzkciRqKCkN6zQXU0ayKFFUnHW7Iykb8w0mpTjuS9HYlv4M
0U1uqyvZiboMJcmhLEKoJkiSYURsZOEjKWLhKIoZFqIJLqEGOmZYyTqE2qUkRnbK
wnkFHuTVZiMZc6gjwkjnrCMnie6iCDKSZmsSTXgRtolOvYivY4ZObS+KY91Oa7IX
mYm0TRRHYklmgiiDHKzzrVk8yzkDmtC8KJE2sWXhmBfFLJ6LqBepXD/IXXiRTVI6
odxOsY+kDE6TV9a8iqQrWPUiLaVSYhnHiqnJ8HMg82rSikkx4zFTNag9mar1G6OO
JotqCjzZKC/haU47TMkYER3ZPDYU5WqFGlbaiziVXJrmlYn2S0Ec4iubSqqaK+Ti
ZBUO7PaN/RktoSTwP0JTDT2eK54icZ9iaCZ3JhOV0HR/RiGWkiK53OZgzkwlsiVZ
6YydkEzOjWRxNuzJ6oKpXYdx3Z5dLZMBpmETJ2xelJOVE71OYDMu6ZQWSzk+ielk
hm1FGivgf/H8/3P138hwR1oxP4cWbue13mE6pWtYmQiJZjP8O402kNayGecxjb5J
pdmM85jOfVc2E3EOlyxnurLTeQmPg8LTglrGQS3TgvzjIP+0oM5xUCcHud3OxbF3
v//iPrbgYjtbyJb0+ANtvAPc7ewKlAa7e3r5OkCGMO93sTZVitt87eeHqKqxFuSG
x8MWscU97YYuKQbvpOG+gofhSH9hNtY7uXrgEG+YrURxcsPzNDwgTdQq0QFPxYSG
Gs332GEcm1I+ZlrV2JyPZpSUHk46tyBvHbiq6Sv5+/LRsx2skvvWdB5OK29Kw4ZZ
mI03dX4PWRt8bfWIfwCb6zT5VNtutjLXzj3PR2QcJ3ruGJg8dt5oOcFRSzrWFyOq
irY7vTHdX+vz+tYgpzRVjGrr12ybClM/JWYKU6xHi3+Q72EoM+CZP3ZNjdM4MjTw
7NhmcjfZPpzG0abCP4pvj7OgZRiUQeAC5WAZqALrQQPYDPqABBLABBlwEpwGr4Az
4DVwFrwO3gTnwNvgPLgM3gMfgKvgGrgOPgKfgM/A5+AL8DW4Db4B34H74CH4DZbA
MrgEroQ1sAF2wgDshmGIoQ6PwjQ8AV+Cp+Gr8C34DjwPR+DH8Aa8BW/DUXgPPoA/
w1/gr8I54aIwIrwrXBKuCO8L14Wbwi3htjAq3BN+FO4LPwkPhIfC78Ifwp+iKM4R
l4qVYo24VtwpNou94iGRiLp4VDwunhBPiS+LZ8Q3xAviJfGqeE38VLwh3hS/dO1y
7XUdckVdmuu466TrhXydzID5NzgBiobrxb8ARJBinA==
-->
<defs>
<clipPath id="clip1">
  <path d="M 1 0.179688 L 206 0.179688 L 206 206 L 1 206 Z M 1 0.179688 "/>
</clipPath>
<clipPath id="clip2">
  <path d="M 0 0.179688 L 226 0.179688 L 226 206.132812 L 0 206.132812 Z M 0 0.179688 "/>
</clipPath>
<clipPath id="clip3">
  <path d="M 103 0.179688 L 308 0.179688 L 308 206 L 103 206 Z M 103 0.179688 "/>
</clipPath>
<clipPath id="clip4">
  <path d="M 82 0.179688 L 309 0.179688 L 309 206.132812 L 82 206.132812 Z M 82 0.179688 "/>
</clipPath>
<clipPath id="clip5">
  <path d="M 0 0.179688 L 226 0.179688 L 226 206.132812 L 0 206.132812 Z M 0 0.179688 "/>
</clipPath>
</defs>
<g id="surface1">
<g clip-path="url(#clip1)" clip-rule="nonzero">
<path style=" stroke:none;fill-rule:nonzero;fill:rgb(50%,50%,50%);fill-opacity:1;" d="M 205.320312 102.980469 C 205.320312 46.621094 159.632812 0.933594 103.273438 0.933594 C 46.914062 0.933594 1.222656 46.621094 1.222656 102.980469 C 1.222656 159.339844 46.914062 205.027344 103.273438 205.027344 C 159.632812 205.027344 205.320312 159.339844 205.320312 102.980469 Z M 205.320312 102.980469 "/>
</g>
<g clip-path="url(#clip2)" clip-rule="nonzero">
<path style="fill:none;stroke-width:0.3985;stroke-linecap:butt;stroke-linejoin:miter;stroke:rgb(0%,0%,0%);stroke-opacity:1;stroke-miterlimit:10;" d="M 28.346531 -0.0000746528 C 28.346531 15.655307 15.655559 28.34628 0.000177083 28.34628 C -15.655205 28.34628 -28.347262 15.655307 -28.347262 -0.0000746528 C -28.347262 -15.655457 -15.655205 -28.346429 0.000177083 -28.346429 C 15.655559 -28.346429 28.346531 -15.655457 28.346531 -0.0000746528 Z M 28.346531 -0.0000746528 " transform="matrix(3.6,0,0,-3.6,103.2728,102.9802)"/>
</g>
<g clip-path="url(#clip3)" clip-rule="nonzero">
<path style=" stroke:none;fill-rule:nonzero;fill:rgb(50%,50%,50%);fill-opacity:1;" d="M 307.371094 102.980469 C 307.371094 46.621094 261.683594 0.933594 205.320312 0.933594 C 148.960938 0.933594 103.273438 46.621094 103.273438 102.980469 C 103.273438 159.339844 148.960938 205.027344 205.320312 205.027344 C 261.683594 205.027344 307.371094 159.339844 307.371094 102.980469 Z M 307.371094 102.980469 "/>
</g>
<g clip-path="url(#clip4)" clip-rule="nonzero">
<path style="fill:none;stroke-width:0.3985;stroke-linecap:butt;stroke-linejoin:miter;stroke:rgb(0%,0%,0%);stroke-opacity:1;stroke-miterlimit:10;" d="M 56.69397 -0.0000746528 C 56.69397 15.655307 44.002998 28.34628 28.346531 28.34628 C 12.691149 28.34628 0.000177083 15.655307 0.000177083 -0.0000746528 C 0.000177083 -15.655457 12.691149 -28.346429 28.346531 -28.346429 C 44.002998 -28.346429 56.69397 -15.655457 56.69397 -0.0000746528 Z M 56.69397 -0.0000746528 " transform="matrix(3.6,0,0,-3.6,103.2728,102.9802)"/>
</g>
<g clip-path="url(#clip5)" clip-rule="nonzero">
<path style="fill:none;stroke-width:0.3985;stroke-linecap:butt;stroke-linejoin:miter;stroke:rgb(0%,0%,0%);stroke-opacity:1;stroke-miterlimit:10;" d="M 28.346531 -0.0000746528 C 28.346531 15.655307 15.655559 28.34628 0.000177083 28.34628 C -15.655205 28.34628 -28.347262 15.655307 -28.347262 -0.0000746528 C -28.347262 -15.655457 -15.655205 -28.346429 0.000177083 -28.346429 C 15.655559 -28.346429 28.346531 -15.655457 28.346531 -0.0000746528 Z M 28.346531 -0.0000746528 " transform="matrix(3.6,0,0,-3.6,103.2728,102.9802)"/>
</g>
</g>
</svg>
