<?xml version="1.0" encoding="UTF-8"?>
<svg xmlns="http://www.w3.org/2000/svg" xmlns:xlink="http://www.w3.org/1999/xlink" width="309pt" height="206.36pt" viewBox="0 0 309 206.36" version="1.1"><!--latexit:AAAJ1HjatVZdbFRFFJ6Bcu+yBbot/1DoQFstsJRtQQER6B9FhG5pt3+0W8u9d2d3
h7177+XObNvtujL4QKIBg4agQSXQxvBnkBD/EH2QxCdetBCMIYboEzHigzHxzTh3
d+0PpTE+eDd7d+ac75yc850zZ1a1dEKZz3cXzpiZN0tKv9JV1o9tSkyjq8xUD2GN
0QNliq1FiRC3lTHTKgLw2LmPPKtk16rVpWXlTz1dsWbtuqotW7fXvbCneX/XgZfU
SFQ/zAaT7WVGQtfvzHbnz1mEOv2ByhhO0m7xm/PbUabpCqWX5s4r8BQWzV+wkM/g
M3ken8UlLnMXn83dlxYvWbpsefGKlSU8n8/h83gBL+TL+HK+gq/kqEtVKNaJgds1
UzfttrgZwu2MMB13WTZW4qqOe+NKxCBhoilMpNQWUhju8xSoihaL2GbCCNU7ht3U
TNgabsODrLRmdXDdqR9qkne86/MrN/ja/YHW3XVBfyADDFiKhps9xVXIV7lVPJs3
+aqqN+U2W32OBHggnztavXHTM93Z9AwljruyS0w7c46Gn938z7LLH2jO8OEBo/nP
bXv+gCCIMpsYEe7ZLxzt2CkC9geaEkwR+QQympEdNbXCLrsZc3CnPr9hV+PuMYWI
upaJlZpgmPIivpTP7yvMuxgMmVoijg2WiSml2IxoOk673cEExSLBmBLBPQkW3tKb
IoYlbA0tPVGXYiQ2lEYIlbeRWDciFNn4cILYOITCpo1YVEiYiQZMO1aJUJMSw4gm
bJxV4EHRbRSpWEAdEUaGYB05RXRPiiClxGlcYVEvwpQYzIvEPmwajHpRBBs0GVe9
yIomKdEcia1YUaINCrAhUrNFlTMGLBr3omjSwraNw14UtkUtQl6kC/2gcOFFlCQM
woSdRg8nTEGTV417NcXQsO5F8YTOiG0OTKYmJc6BKropPpkUKxK2dJPRqVSt3xhy
NGlUnuOJoqxElDnpMKViRAxERWwoJNQaM+2kFwkqhTQpOhPtU9pwl9hRpuh6ppEn
Fyt3YLdv7E3Fo1oUPxaabhqRTPNMEvdoZtwSzlSiE5bsTWnE1hIkU9sMzFnpRLUV
O5miUcUS3Ci2YINOVedMaSXGlXt21U8FWCYlTtiiKacqJ3qdwGZEMRibLBX4GGZT
GaaaMtbA/+L5/+fqv5HhDjZgcQ5t3CR6vdlyWte0U0ESSqfEdxptIBlPp5zXNPpa
naVTzms6963pVNA5XKqaak1P56V7HNQ9Lah+HFQ/Lcg/DvJPC2oZB7UIkNvtXBwv
7vOf38sXnG/iC/mSDn+gUUyAuy2tgfy29o5OsQ+QISzmXbhRVyJU7P3iEJXWVIDM
4/HwRXxxR5NpKJopJml3T87DcLA3txqbnULdd1AMzAaiObURdRruUyZqtVCfp2jC
QA1lZ+wwDj9RPmZaWlOXjWaU5B+KObegGB24tPZr9ft7l0t+5sXCd9wQ4TSIoTRs
WrnV+FAX95C9wddYhcQH8LnOkE807uYlmXHuuRpUcYQYmWNgidjFoBUEh2xloCdM
dB1td2ZjsrfC5/WtQU5r6hhVVK3Z9iRM1RSMo+7B/dhAZiiE7IQuxupAlDDcix73
iJ5gjo3Q5MDcItmhVJ9n/th9Ns73yFDfy2NZZ668vTiJQ7W5vx7fHeFttmkyDoEL
FIJloBSsB9VgM+gBCogCC6TAq+A4eAOcBG+BU+A0eAecAe+Bs+AiuAw+BFfBNXAd
fAw+BZ+DL8CX4BtwG3wL7oEH4BH4HebBArgElsByWA1bYAC2w26IoQH7YRIeha/D
4/BN+C58H56FI/ATeAPegrfhKLwPH8Jf4K/wN+mMdF4akT6QLkiXpCvSdemmdEu6
LY1K96UfpQfST9JD6ZH0h/Sn9Jcsy3PkpXKxXC6vlXfKdXKnfFAmsiH3y0fko/Ix
+YR8Un5bPidfkK/K1+TP5BvyTfkrl+GirtdcJ1ynXRddV1zXsg01A2Z/wVEw6XFd
/xuPaHFH
-->
<defs>
<clipPath id="clip1">
  <path d="M 1 0.179688 L 206 0.179688 L 206 206 L 1 206 Z M 1 0.179688 "/>
</clipPath>
<clipPath id="clip2">
  <path d="M 0 0.179688 L 226 0.179688 L 226 206.132812 L 0 206.132812 Z M 0 0.179688 "/>
</clipPath>
<clipPath id="clip3">
  <path d="M 103 0.179688 L 308 0.179688 L 308 206 L 103 206 Z M 103 0.179688 "/>
</clipPath>
<clipPath id="clip4">
  <path d="M 82 0.179688 L 309 0.179688 L 309 206.132812 L 82 206.132812 Z M 82 0.179688 "/>
</clipPath>
<clipPath id="clip5">
  <path d="M 1 0.179688 L 308 0.179688 L 308 206 L 1 206 Z M 1 0.179688 "/>
</clipPath>
</defs>
<g id="surface1">
<g clip-path="url(#clip1)" clip-rule="nonzero">
<path style=" stroke:none;fill-rule:nonzero;fill:rgb(50%,50%,50%);fill-opacity:1;" d="M 205.320312 102.980469 C 205.320312 46.621094 159.632812 0.933594 103.273438 0.933594 C 46.914062 0.933594 1.222656 46.621094 1.222656 102.980469 C 1.222656 159.339844 46.914062 205.027344 103.273438 205.027344 C 159.632812 205.027344 205.320312 159.339844 205.320312 102.980469 Z M 205.320312 102.980469 "/>
</g>
<g clip-path="url(#clip2)" clip-rule="nonzero">
<path style="fill:none;stroke-width:0.3985;stroke-linecap:butt;stroke-linejoin:miter;stroke:rgb(0%,0%,0%);stroke-opacity:1;stroke-miterlimit:10;" d="M 28.346531 -0.0000746528 C 28.346531 15.655307 15.655559 28.34628 0.000177083 28.34628 C -15.655205 28.34628 -28.347262 15.655307 -28.347262 -0.0000746528 C -28.347262 -15.655457 -15.655205 -28.346429 0.000177083 -28.346429 C 15.655559 -28.346429 28.346531 -15.655457 28.346531 -0.0000746528 Z M 28.346531 -0.0000746528 " transform="matrix(3.6,0,0,-3.6,103.2728,102.9802)"/>
</g>
<g clip-path="url(#clip3)" clip-rule="nonzero">
<path style=" stroke:none;fill-rule:nonzero;fill:rgb(50%,50%,50%);fill-opacity:1;" d="M 307.371094 102.980469 C 307.371094 46.621094 261.683594 0.933594 205.320312 0.933594 C 148.960938 0.933594 103.273438 46.621094 103.273438 102.980469 C 103.273438 159.339844 148.960938 205.027344 205.320312 205.027344 C 261.683594 205.027344 307.371094 159.339844 307.371094 102.980469 Z M 307.371094 102.980469 "/>
</g>
<g clip-path="url(#clip4)" clip-rule="nonzero">
<path style="fill:none;stroke-width:0.3985;stroke-linecap:butt;stroke-linejoin:miter;stroke:rgb(0%,0%,0%);stroke-opacity:1;stroke-miterlimit:10;" d="M 56.69397 -0.0000746528 C 56.69397 15.655307 44.002998 28.34628 28.346531 28.34628 C 12.691149 28.34628 0.000177083 15.655307 0.000177083 -0.0000746528 C 0.000177083 -15.655457 12.691149 -28.346429 28.346531 -28.346429 C 44.002998 -28.346429 56.69397 -15.655457 56.69397 -0.0000746528 Z M 56.69397 -0.0000746528 " transform="matrix(3.6,0,0,-3.6,103.2728,102.9802)"/>
</g>
<g clip-path="url(#clip5)" clip-rule="nonzero">
<path style=" stroke:none;fill-rule:evenodd;fill:rgb(100%,100%,100%);fill-opacity:1;" d="M 205.320312 102.980469 C 205.320312 46.621094 159.632812 0.933594 103.273438 0.933594 C 46.914062 0.933594 1.222656 46.621094 1.222656 102.980469 C 1.222656 159.339844 46.914062 205.027344 103.273438 205.027344 C 159.632812 205.027344 205.320312 159.339844 205.320312 102.980469 Z M 307.371094 102.980469 C 307.371094 46.621094 261.683594 0.933594 205.320312 0.933594 C 148.960938 0.933594 103.273438 46.621094 103.273438 102.980469 C 103.273438 159.339844 148.960938 205.027344 205.320312 205.027344 C 261.683594 205.027344 307.371094 159.339844 307.371094 102.980469 Z M 307.371094 102.980469 "/>
</g>
</g>
</svg>
