<?xml version="1.0" encoding="UTF-8"?>
<!DOCTYPE svg PUBLIC "-//W3C//DTD SVG 1.1//EN" "http://www.w3.org/Graphics/SVG/1.1/DTD/svg11.dtd">
<svg version="1.1" xmlns="http://www.w3.org/2000/svg" xmlns:xlink="http://www.w3.org/1999/xlink" x="0" y="0" width="360" height="250" viewBox="0, 0, 360, 250">
  <g id="Layer_1">
    <g>
      <g>
        <path d="M59.841,211.441 C29.231,211.441 4.418,174.221 4.418,128.307 C4.418,82.394 29.231,45.174 59.841,45.174 C90.45,45.174 115.263,82.394 115.263,128.307 C115.263,174.221 90.45,211.441 59.841,211.441 z" fill="#FFFFFF"/>
        <path d="M59.841,211.441 C29.231,211.441 4.418,174.221 4.418,128.307 C4.418,82.394 29.231,45.174 59.841,45.174 C90.45,45.174 115.263,82.394 115.263,128.307 C115.263,174.221 90.45,211.441 59.841,211.441 z" fill-opacity="0" stroke="#000000" stroke-width="1"/>
      </g>
      <g>
        <path d="M295.386,243.771 C261.589,243.771 234.191,202.157 234.191,150.823 C234.191,99.489 261.589,57.875 295.386,57.875 C329.184,57.875 356.582,99.489 356.582,150.823 C356.582,202.157 329.184,243.771 295.386,243.771 z" fill="#FFFFFF"/>
        <path d="M295.386,243.771 C261.589,243.771 234.191,202.157 234.191,150.823 C234.191,99.489 261.589,57.875 295.386,57.875 C329.184,57.875 356.582,99.489 356.582,150.823 C356.582,202.157 329.184,243.771 295.386,243.771 z" fill-opacity="0" stroke="#000000" stroke-width="1"/>
      </g>
      <path d="M52.913,93.668 C132.279,4.359 203.265,75.277 282.685,101.751" fill-opacity="0" stroke="#000000" stroke-width="1" stroke-linecap="round" stroke-linejoin="round"/>
      <path d="M58.686,119.07 C128.702,117.572 198.019,134.389 264.211,141.008" fill-opacity="0" stroke="#000000" stroke-width="1" stroke-linecap="round" stroke-linejoin="round"/>
      <path d="M71.387,167.565 C115.359,197.713 258.824,288.029 295.386,214.905" fill-opacity="0" stroke="#000000" stroke-width="1" stroke-linecap="round" stroke-linejoin="round"/>
      <path d="M63.304,106.369 C128.187,93.317 226.812,129.11 281.531,101.751" fill-opacity="0" stroke="#000000" stroke-width="1" stroke-linecap="round" stroke-linejoin="round"/>
      <path d="M55.222,144.472 C128.739,134.745 219.217,130.318 273.448,176.802" fill-opacity="0" stroke="#000000" stroke-width="1" stroke-linecap="round" stroke-linejoin="round"/>
      <path d="M94.48,157.173 C156.317,217.852 262.204,208.404 330.025,174.493" fill-opacity="0" stroke="#000000" stroke-width="1" stroke-linecap="round" stroke-linejoin="round"/>
      <path d="M52.208,28.301 C50.77,30.707 49.364,31.207 47.801,31.317 C47.364,31.348 47.036,31.348 47.036,32.036 C47.036,32.254 47.223,32.426 47.505,32.426 C48.473,32.426 49.583,32.317 50.598,32.317 C51.77,32.317 53.036,32.426 54.176,32.426 C54.395,32.426 54.864,32.426 54.864,31.739 C54.864,31.348 54.536,31.317 54.286,31.317 C53.458,31.239 52.598,30.957 52.598,30.067 C52.598,29.629 52.817,29.239 53.098,28.739 L55.833,24.145 L64.833,24.145 C64.895,24.895 65.395,29.77 65.395,30.129 C65.395,31.207 63.536,31.317 62.817,31.317 C62.317,31.317 61.958,31.317 61.958,32.036 C61.958,32.426 62.395,32.426 62.458,32.426 C63.926,32.426 65.473,32.317 66.942,32.317 C67.833,32.317 70.098,32.426 70.989,32.426 C71.208,32.426 71.645,32.426 71.645,31.707 C71.645,31.317 71.286,31.317 70.817,31.317 C68.598,31.317 68.598,31.067 68.489,30.02 L66.301,7.614 C66.223,6.895 66.223,6.754 65.614,6.754 C65.036,6.754 64.895,7.004 64.676,7.364 z M56.505,23.036 L63.567,11.192 L64.723,23.036 z M56.505,23.036" fill="#000000" id="A"/>
      <path d="M292.439,36.557 C292.08,37.948 292.017,38.245 289.174,38.245 C288.564,38.245 288.205,38.245 288.205,38.963 C288.205,39.354 288.533,39.354 289.174,39.354 L301.986,39.354 C307.642,39.354 311.877,35.12 311.877,31.604 C311.877,29.026 309.799,26.948 306.314,26.557 C310.049,25.87 313.814,23.213 313.814,19.807 C313.814,17.151 311.455,14.87 307.142,14.87 L295.095,14.87 C294.408,14.87 294.049,14.87 294.049,15.573 C294.049,15.979 294.377,15.979 295.064,15.979 C295.127,15.979 295.814,15.979 296.424,16.042 C297.064,16.12 297.392,16.151 297.392,16.62 C297.392,16.76 297.361,16.87 297.252,17.307 z M297.861,26.229 L300.08,17.338 C300.408,16.088 300.47,15.979 302.017,15.979 L306.642,15.979 C309.799,15.979 310.549,18.088 310.549,19.667 C310.549,22.823 307.47,26.229 303.095,26.229 z M296.236,38.245 C295.736,38.245 295.674,38.245 295.455,38.213 C295.095,38.167 294.986,38.135 294.986,37.854 C294.986,37.745 294.986,37.667 295.174,37.026 L297.642,27.026 L304.424,27.026 C307.861,27.026 308.549,29.667 308.549,31.213 C308.549,34.76 305.345,38.245 301.127,38.245 z M296.236,38.245" fill="#000000" id="B"/>
      <path d="M185.191,17.667 L188.285,17.667 C189.004,17.667 189.348,17.667 189.348,16.948 C189.348,16.557 189.004,16.557 188.394,16.557 L185.41,16.557 L186.16,12.463 C186.301,11.713 186.816,9.167 187.019,8.745 C187.348,8.057 187.957,7.526 188.707,7.526 C188.848,7.526 189.785,7.526 190.473,8.167 C188.894,8.307 188.535,9.557 188.535,10.104 C188.535,10.932 189.176,11.354 189.863,11.354 C190.785,11.354 191.832,10.573 191.832,9.198 C191.832,7.557 190.176,6.729 188.707,6.729 C187.488,6.729 185.238,7.37 184.16,10.932 C183.941,11.682 183.832,12.042 182.973,16.557 L180.504,16.557 C179.816,16.557 179.426,16.557 179.426,17.229 C179.426,17.667 179.738,17.667 180.426,17.667 L182.785,17.667 L180.098,31.838 C179.457,35.307 178.848,38.573 176.988,38.573 C176.848,38.573 175.941,38.573 175.269,37.932 C176.91,37.823 177.238,36.526 177.238,35.995 C177.238,35.167 176.582,34.729 175.91,34.729 C174.973,34.729 173.941,35.526 173.941,36.885 C173.941,38.495 175.519,39.354 176.988,39.354 C178.957,39.354 180.394,37.245 181.035,35.885 C182.176,33.62 183.004,29.292 183.051,29.042 z M185.191,17.667" fill="#000000" id="f"/>
      <path d="M70.067,169.947 C68.134,169.947 66.567,168.38 66.567,166.447 C66.567,164.514 68.134,162.947 70.067,162.947 C72,162.947 73.567,164.514 73.567,166.447 C73.567,168.38 72,169.947 70.067,169.947 z" fill="#000000"/>
      <path d="M94.327,160.479 C92.394,160.479 90.827,158.912 90.827,156.979 C90.827,155.046 92.394,153.479 94.327,153.479 C96.26,153.479 97.827,155.046 97.827,156.979 C97.827,158.912 96.26,160.479 94.327,160.479 z" fill="#000000"/>
      <path d="M55.913,147.508 C53.98,147.508 52.413,145.941 52.413,144.008 C52.413,142.075 53.98,140.508 55.913,140.508 C57.846,140.508 59.413,142.075 59.413,144.008 C59.413,145.941 57.846,147.508 55.913,147.508 z" fill="#000000"/>
      <path d="M59.304,122.378 C57.371,122.378 55.804,120.811 55.804,118.878 C55.804,116.945 57.371,115.378 59.304,115.378 C61.237,115.378 62.804,116.945 62.804,118.878 C62.804,120.811 61.237,122.378 59.304,122.378 z" fill="#000000"/>
      <path d="M63.067,108.251 C61.134,108.251 59.567,106.684 59.567,104.751 C59.567,102.818 61.134,101.251 63.067,101.251 C65,101.251 66.567,102.818 66.567,104.751 C66.567,106.684 65,108.251 63.067,108.251 z" fill="#000000"/>
      <path d="M52.304,98.085 C50.371,98.085 48.804,96.518 48.804,94.585 C48.804,92.652 50.371,91.085 52.304,91.085 C54.237,91.085 55.804,92.652 55.804,94.585 C55.804,96.518 54.237,98.085 52.304,98.085 z" fill="#000000"/>
      <path d="M281.974,105.085 C280.041,105.085 278.474,103.518 278.474,101.585 C278.474,99.652 280.041,98.085 281.974,98.085 C283.907,98.085 285.474,99.652 285.474,101.585 C285.474,103.518 283.907,105.085 281.974,105.085 z" fill="#000000"/>
      <path d="M263.307,144.656 C261.374,144.656 259.807,143.089 259.807,141.156 C259.807,139.223 261.374,137.656 263.307,137.656 C265.24,137.656 266.807,139.223 266.807,141.156 C266.807,143.089 265.24,144.656 263.307,144.656 z" fill="#000000"/>
      <path d="M272.307,179.085 C270.374,179.085 268.807,177.518 268.807,175.585 C268.807,173.652 270.374,172.085 272.307,172.085 C274.24,172.085 275.807,173.652 275.807,175.585 C275.807,177.518 274.24,179.085 272.307,179.085 z" fill="#000000"/>
      <path d="M329.307,176.302 C327.374,176.302 325.807,174.735 325.807,172.802 C325.807,170.869 327.374,169.302 329.307,169.302 C331.24,169.302 332.807,170.869 332.807,172.802 C332.807,174.735 331.24,176.302 329.307,176.302 z" fill="#000000"/>
      <path d="M294.886,217.941 C292.953,217.941 291.386,216.374 291.386,214.441 C291.386,212.508 292.953,210.941 294.886,210.941 C296.819,210.941 298.386,212.508 298.386,214.441 C298.386,216.374 296.819,217.941 294.886,217.941 z" fill="#000000"/>
    </g>
  </g>
</svg>
